<svg width="140" height="68" viewBox="0 0 140 68" fill="none" xmlns="http://www.w3.org/2000/svg">
<path d="M9.22414 28.4194C8.40287 28.6551 7.74001 29.3141 7.50554 30.1354C7.4371 30.375 7.40162 30.6234 7.41176 30.8667C7.46499 32.1988 8.54735 33.2659 9.88192 33.2659H16.2722C20.8133 33.2659 24.6852 36.3989 25.7536 40.665C26.021 41.4647 26.0869 42.2645 26.0869 43.1314C26.0869 45.798 25.0185 48.2643 23.2162 50.064C21.414 51.8637 18.9426 52.9296 16.2722 52.9296H0.841552V49.263C0.841552 47.1959 2.51072 45.5293 4.51448 45.5293H16.2063C17.5421 45.5293 18.6764 44.5293 18.7436 43.1301C18.7436 42.4634 18.4762 41.7968 18.0085 41.3963C17.5408 40.9299 16.9401 40.6637 16.2722 40.6637H9.81475C7.14433 40.6637 4.67291 39.5307 2.87066 37.7969C1.66917 36.5307 0.733822 34.9972 0.333323 33.2646C0.133074 32.4649 0 31.6652 0 30.8654C0 25.3991 4.5411 21 9.9491 21H24.8246V24.6666C24.8246 26.7325 23.1554 28.3332 21.1517 28.3332H9.81475C9.6107 28.3332 9.41425 28.3636 9.22414 28.4181V28.4194Z" fill="#211261"/>
<path d="M36.5708 25.8668C36.5708 28.5993 34.3668 30.7995 31.6964 30.7995C29.026 30.7995 26.7548 28.5993 26.7548 25.8668C26.7548 23.1343 28.9588 21 31.6964 21C34.434 21 36.5708 23.2002 36.5708 25.8668ZM31.6964 33.2101H35.3693V49.3163C35.3693 51.3162 33.7002 52.9829 31.6964 52.9829H27.9576V36.8767C27.9576 34.8768 29.6268 33.2101 31.6964 33.2101Z" fill="#211261"/>
<path d="M54.5274 52.9309C51.3221 52.9309 48.3843 51.9981 45.9141 50.3974V67.6619H38.5024L38.5683 36.9325V35.7323C39.169 27.4663 46.0472 21.0013 54.5274 21.0013C63.0076 21.0013 70.4865 28.1342 70.4865 36.9325C70.4865 45.7308 63.3422 52.9309 54.5274 52.9309ZM63.1406 36.9325C63.1406 32.2 59.2675 28.3332 54.5274 28.3332C49.7873 28.3332 45.9141 32.2 45.9141 36.9325C45.9141 41.665 49.7201 45.5318 54.5274 45.5318C59.3346 45.5318 63.1406 41.7322 63.1406 36.9325Z" fill="#211261"/>
<path d="M104.586 36.9325V52.9309H99.7115C98.3097 52.9309 97.2413 51.7978 97.2413 50.3974C94.704 51.9968 91.7661 52.9309 88.6281 52.9309C84.1541 52.9309 80.2151 51.1312 77.2772 48.2656C74.4066 45.3328 72.603 41.3988 72.603 36.9338C72.603 28.2014 79.8146 21.0025 88.5622 21.0025C93.0361 21.0025 97.0423 22.8022 99.913 25.6678C102.517 28.2673 104.253 31.8008 104.52 35.7335C104.587 36.1328 104.587 36.5333 104.587 36.9338L104.586 36.9325ZM97.2413 37.1327C97.2413 34.6664 96.306 32.4674 94.704 30.8667C93.102 29.3332 90.9652 28.3332 88.6281 28.3332C86.291 28.3332 84.0882 29.3332 82.485 30.8667C80.9489 32.4662 80.0148 34.6005 80.0148 36.9325C80.0148 39.2645 80.9501 41.466 82.485 43.0654C84.087 44.6649 86.291 45.599 88.7611 45.5318C93.3681 45.4646 97.107 41.7321 97.2413 37.1327Z" fill="#211261"/>
<path d="M111.686 48.2643C112.487 49.0641 113.422 49.7966 114.423 50.3974C116.894 51.9968 119.833 52.9309 123.037 52.9309C126.241 52.9309 129.113 51.9981 131.65 50.3974C131.999 54.8612 129.715 59.2388 124.781 60.2147C119.847 61.1906 116.961 57.8636 116.961 57.8636L111.085 62.33C111.085 62.33 118.323 71.0712 129.982 66.0624C130.03 66.0384 130.082 66.0143 130.133 65.9902C131.31 65.4097 139.207 61.1348 138.996 50.9424V21.0013H131.661L131.717 36.9769C131.717 39.2759 130.816 41.4635 129.18 43.1377C128.762 43.5559 128.261 43.9564 127.73 44.2974C126.304 45.1972 124.687 45.6738 123.054 45.6738C121.422 45.6738 119.769 45.1972 118.379 44.2974C115.861 42.7182 114.356 39.9819 114.356 36.9769V21.0013H107.01V36.9325C107.01 39.5991 107.678 42.1314 108.813 44.3316C109.548 45.798 110.549 47.1313 111.683 48.2643H111.686Z" fill="#211261"/>
</svg>
